# xmcd
#
# Track frame offsets:
#	150
#	12826
#	25451
#	37048
#	45408
#	59682
#	69043
#	83002
#	96326
#	110751
#	120073
#	135706
#	151262
#	165418
#
# Disc length: 2390 seconds
#
# Revision: 0
# Processed by: cddbd v1.5.2PL0 Copyright (c) Steve Scherf et al.
# Submitted via: EasyCDDAExtractor 16.0.8.2
#
DISCID=a909540e
DTITLE=Συλλογικός δίσκος - Ας ερχόσουν για λίγο-Μ. Σουγιούλ
DYEAR=2005
DGENRE=Ελαφρά
TTITLE0=Μαρούδας Τώνης - Άρχισαν τα όργανα [1953, σ. Α.Σακελλάριος-Χ.Γιαννακ/λ
TTITLE0=ος]
TTITLE1=Σκούταρης Δημήτρης-Λογοθετίδης Βασίλης - Άλα! [1952, σ. Α. Σακελλάριος
TTITLE1=Χ. Γιαννακόπουλος]
TTITLE2=Πολυμέρης Φώτης - Θα γυρίσει ο τροχός [1950, σ. Α. Σακελλάριος]
TTITLE3=Χιώτης Μ.-Βρανά Σπ.-Φωτόπουλος Μ. - Ο μήνας έχει εννιά [1953, σ. Γ. Τζ
TTITLE3=αβέλλας]
TTITLE4=Κυριακίδου Μπέμπα - Αλλά... μ' αρέσει [1957, σ. Ν. Τσιφόρος]
TTITLE5=Κυριακίδου Μπέμπα - Άλα της, άλα της [1955, σ. Γ. Γιαννακόπουλος]
TTITLE6=Γούναρης Νίκος-Πολυμέρης Φ.-Τάλμας Ρ. - Ξενομανία [1937, σ. Κ. Κοφινιώ
TTITLE6=της]
TTITLE7=Λυκιαρδοπούλου Αγγέλα - Για σένα [1940, σ. Α. Σακελλάριος-Χ. Γιαννακόπ
TTITLE7=ουλος]
TTITLE8=Βέμπο Σοφία - Κοντά στον Νείλο (Φεριχά)[1939, σ. Κ.Κοφινιώτης-Α.Σαββίδ
TTITLE8=ης]
TTITLE9=Βέμπο Σοφία - Αθήνα και πάλι Αθήνα [1949, σ. Μ. Τραϊφόρος]
TTITLE10=Κορώνης-Φίλανδρος - Το ραγισμένο γυαλί [1953, σ. Γ. Γιαννακόπουλος]
TTITLE11=Λίντα Μαίρη-Τσιτσάνης Β.-Μαυρίδης Χ. - Όμορφα και ωραία [1954, σ. Λ. 
TTITLE11=Ζούνης-Η. Λυμπερόπουλος]
TTITLE12=Στυλ Εύα-Γούναρης Νίκος - Ο τραμπαρίφας [σ. Α. Σακελλάριος-Χ. Γιαννακ
TTITLE12=όπουλος]
TTITLE13=Βρανά Σπεράντζα - Το τελευταίο τραμ [σ. Α. Σακελλάριος-Χ. Γιαννακόπου
TTITLE13=λος]
EXTD=
EXTT0=
EXTT1=
EXTT2=
EXTT3=
EXTT4=
EXTT5=
EXTT6=
EXTT7=
EXTT8=
EXTT9=
EXTT10=
EXTT11=
EXTT12=
EXTT13=
PLAYORDER=
